<svg width="30" height="52" viewBox="0 0 30 52" fill="none" xmlns="http://www.w3.org/2000/svg">
<path d="M0.514023 27.1986L24.536 51.4786C24.8798 51.8257 25.2754 52 25.7219 52C26.1685 52 26.564 51.8257 26.9075 51.4786L29.4845 48.8733C29.8287 48.526 30 48.127 30 47.6748C30 47.2226 29.8287 46.8237 29.4845 46.4764L9.2261 25.9995L29.4845 5.52218C29.8287 5.17489 30 4.77522 30 4.32427C30 3.87223 29.8287 3.47256 29.4845 3.12526L26.9074 0.520847C26.5638 0.173191 26.1684 0 25.7217 0C25.2752 0 24.8798 0.173557 24.536 0.520847L0.515289 24.801C0.171883 25.1481 0 25.548 0 25.9995C0 26.451 0.170616 26.8506 0.514023 27.1986Z" fill="#636569"/>
</svg>
