<svg width="30" height="52" viewBox="0 0 30 52" fill="none" xmlns="http://www.w3.org/2000/svg">
<path d="M29.486 24.8014L5.46398 0.521394C5.12022 0.174285 4.72463 0 4.27813 0C3.83145 0 3.43605 0.174285 3.09246 0.521394L0.51547 3.12672C0.171342 3.47401 0 3.87295 0 4.32518C0 4.77741 0.171342 5.17635 0.51547 5.52364L20.7739 26.0005L0.51547 46.4778C0.171342 46.8251 0 47.2248 0 47.6757C0 48.1278 0.171342 48.5274 0.51547 48.8747L3.09264 51.4792C3.43623 51.8268 3.83163 52 4.27831 52C4.72481 52 5.12022 51.8264 5.46398 51.4792L29.4847 27.199C29.8281 26.8519 30 26.452 30 26.0005C30 25.549 29.8294 25.1494 29.486 24.8014Z" fill="#636569"/>
</svg>
